<svg id="Layer_1" data-name="Layer 1" xmlns="http://www.w3.org/2000/svg" viewBox="0 0 61 58"><path d="M50.37,9A27.89,27.89,0,0,0,10.63,9a28.55,28.55,0,0,0,0,40.09,27.91,27.91,0,0,0,39.74,0A28.55,28.55,0,0,0,50.37,9ZM46.46,49.85a25.83,25.83,0,0,1-31.92,0c0-.41,0-.82,0-1.23,0-9.66,7.18-17.52,16-17.52s16,7.86,16,17.52C46.5,49,46.48,49.44,46.46,49.85ZM48.53,48c-.28-10.54-8.25-19-18-19s-17.74,8.45-18,19a26.37,26.37,0,0,1,18-45.3,26.37,26.37,0,0,1,18,45.3Z" fill="#394240" stroke="#090a0a" stroke-miterlimit="10"/><path d="M46.46,49.85a25.83,25.83,0,0,1-31.92,0c0-.41,0-.82,0-1.23,0-9.66,7.18-17.52,16-17.52s16,7.86,16,17.52C46.5,49,46.48,49.44,46.46,49.85Z" fill="#394240" stroke="#394240" stroke-miterlimit="10"/><path d="M46.46,49.85a25.83,25.83,0,0,1-31.92,0c0-.41,0-.82,0-1.23,0-9.66,7.18-17.52,16-17.52s16,7.86,16,17.52C46.5,49,46.48,49.44,46.46,49.85Z" fill="#506C7F" stroke="#394240" stroke-miterlimit="10"/><path d="M48.53,48c-.28-10.54-8.25-19-18-19s-17.74,8.45-18,19a26.37,26.37,0,0,1,18-45.3,26.37,26.37,0,0,1,18,45.3Z" fill="#47A992" stroke="#394240" stroke-miterlimit="10"/><path d="M30.55,7.77a9.06,9.06,0,1,0,9.06,9.06h0a9.06,9.06,0,0,0-9.06-9.06Zm0,16.07a7,7,0,1,1,7-7h0A7,7,0,0,1,30.55,23.84Z" fill="#394240"/><circle cx="30.55" cy="16.83" r="7.01" fill="#F76D57" stroke="#394240" stroke-miterlimit="10" stroke-width="1"/><rect width="61" height="58" fill="none"/></svg>